PathFileType	4	(X/Y/Z)	 control3min.trc
DataRate	CameraRate	NumFrames	NumMarkers	Units	OrigDataRate	OrigDataStartFrame	OrigNumFrames
200	200	8	42	m	200	751	1000
Frame#	Time	C7			LSH			RSH			MAN			RASI			LASI			HIPR			HIPL			RPSI			LPSI			COX			RTHI1			RTHI2			RTHI3			RTHI4			RLKN			RMKN			RSHA1			RSHA2			RSHA3			RSHA4			RLMAL			RHEEL			RMET5			RMET1			RTOE			LTHI1			LTHI2			LTHI3			LTHI4			LLKN			LMKN			LSHA1			LSHA2			LSHA3			LSHA4			LLMAL			LMMAL			LHEEL			LMET5			LMET1			LTOE			
		X1	Y1	Z1	X2	Y2	Z2	X3	Y3	Z3	X4	Y4	Z4	X5	Y5	Z5	X6	Y6	Z6	X7	Y7	Z7	X8	Y8	Z8	X9	Y9	Z9	X10	Y10	Z10	X11	Y11	Z11	X12	Y12	Z12	X13	Y13	Z13	X14	Y14	Z14	X15	Y15	Z15	X16	Y16	Z16	X17	Y17	Z17	X18	Y18	Z18	X19	Y19	Z19	X20	Y20	Z20	X21	Y21	Z21	X22	Y22	Z22	X23	Y23	Z23	X24	Y24	Z24	X25	Y25	Z25	X26	Y26	Z26	X27	Y27	Z27	X28	Y28	Z28	X29	Y29	Z29	X30	Y30	Z30	X31	Y31	Z31	X32	Y32	Z32	X33	Y33	Z33	X34	Y34	Z34	X35	Y35	Z35	X36	Y36	Z36	X37	Y37	Z37	X38	Y38	Z38	X39	Y39	Z39	X40	Y40	Z40	X41	Y41	Z41	X42	Y42	Z42	
751	3.7550	-0.285822	1.477871	-0.512325	-0.207715	1.488897	-0.662616	-0.211049	1.478382	-0.360480	-0.154428	1.438534	-0.518899	-0.118992	0.995653	-0.406337	-0.137945	0.997706	-0.640289	-0.156254	1.083413	-0.386397	-0.173914	1.079242	-0.656095	-0.277262	1.046152	-0.463336	-0.286862	1.046162	-0.551533	-0.288942	1.043793	-0.509775	-0.215623	0.835220	-0.340364	-0.210792	0.773218	-0.343435	-0.138794	0.786659	-0.342050	-0.151841	0.845355	-0.340314	-0.194421	0.560299	-0.365834	-0.179865	0.545053	-0.486814	-0.268622	0.427522	-0.354568	-0.278823	0.386731	-0.364580	-0.219731	0.376102	-0.353556	-0.212632	0.415691	-0.348670	-0.251440	0.209232	-0.383023	-0.296996	0.206617	-0.430083	-0.174647	0.113665	-0.362114	-0.136434	0.112501	-0.421196	-0.116335	0.097293	-0.416508	-0.247342	0.831181	-0.694218	-0.237128	0.772462	-0.697501	-0.166878	0.786263	-0.709332	-0.184954	0.844887	-0.705766	-0.208494	0.571651	-0.689859	-0.190663	0.547462	-0.574790	-0.285644	0.405733	-0.697057	-0.293831	0.366904	-0.688603	-0.232045	0.358699	-0.693179	-0.231842	0.402125	-0.700260	-0.287470	0.219921	-0.677003	-0.257587	0.232473	-0.604048	-0.333887	0.226897	-0.633132	-0.228106	0.111526	-0.688790	-0.190353	0.108854	-0.622854	-0.177301	0.092359	-0.634059	
752	3.7600	-0.285197	1.478128	-0.512321	-0.206950	1.488510	-0.662983	-0.210324	1.477917	-0.360111	-0.153910	1.438386	-0.518941	-0.119657	0.995835	-0.405967	-0.138107	0.997779	-0.640102	-0.156836	1.083490	-0.386309	-0.174082	1.079320	-0.655934	-0.277927	1.045831	-0.463496	-0.287291	1.045777	-0.551689	-0.289467	1.043444	-0.509947	-0.216079	0.835129	-0.340406	-0.210868	0.773161	-0.343450	-0.138944	0.787015	-0.341688	-0.152362	0.845654	-0.339978	-0.193589	0.560521	-0.365710	-0.178876	0.545451	-0.486637	-0.268201	0.427986	-0.354643	-0.278456	0.387215	-0.364696	-0.219428	0.376432	-0.353530	-0.212225	0.415989	-0.348630	-0.251328	0.209527	-0.383100	-0.296996	0.206564	-0.430152	-0.173907	0.114624	-0.362189	-0.135812	0.113710	-0.421319	-0.115564	0.098968	-0.416612	-0.247098	0.830732	-0.694451	-0.236509	0.772080	-0.697702	-0.166284	0.786305	-0.709187	-0.184725	0.844816	-0.705679	-0.207483	0.571887	-0.689922	-0.189946	0.547837	-0.574743	-0.285065	0.406223	-0.697148	-0.293414	0.367392	-0.688583	-0.231657	0.358949	-0.692908	-0.231252	0.402372	-0.700058	-0.287792	0.220321	-0.676724	-0.257997	0.232914	-0.603715	-0.334353	0.227000	-0.632861	-0.227952	0.112294	-0.688597	-0.190197	0.109827	-0.622690	-0.177003	0.093617	-0.634020	
753	3.7650	-0.284558	1.478138	-0.512308	-0.206177	1.487892	-0.663288	-0.209575	1.477241	-0.359780	-0.153404	1.437997	-0.518990	-0.120316	0.995778	-0.405588	-0.138253	0.997602	-0.639909	-0.157465	1.083316	-0.386232	-0.174202	1.079135	-0.655775	-0.278593	1.045240	-0.463683	-0.287721	1.045127	-0.551871	-0.289989	1.042823	-0.510138	-0.216486	0.834789	-0.340428	-0.210894	0.772856	-0.343448	-0.139053	0.787121	-0.341329	-0.152833	0.845698	-0.339647	-0.192720	0.560489	-0.365561	-0.177904	0.545625	-0.486464	-0.267751	0.428175	-0.354672	-0.278072	0.387445	-0.364758	-0.219113	0.376502	-0.353480	-0.211805	0.416029	-0.348566	-0.251265	0.209593	-0.383162	-0.297035	0.206314	-0.430187	-0.173275	0.115316	-0.362291	-0.135343	0.114603	-0.421485	-0.114946	0.100301	-0.416726	-0.246832	0.830131	-0.694697	-0.235901	0.771543	-0.697897	-0.165698	0.786154	-0.709036	-0.184473	0.844555	-0.705601	-0.206430	0.571870	-0.690003	-0.189363	0.547980	-0.574669	-0.284540	0.406488	-0.697224	-0.293041	0.367656	-0.688553	-0.231321	0.358969	-0.692679	-0.230713	0.402381	-0.699898	-0.288155	0.220503	-0.676469	-0.258421	0.233125	-0.603413	-0.334842	0.226877	-0.632596	-0.227854	0.112837	-0.688467	-0.190091	0.110579	-0.622599	-0.176743	0.094611	-0.634041	
754	3.7700	-0.283906	1.477904	-0.512285	-0.205398	1.487045	-0.663534	-0.208803	1.476346	-0.359490	-0.152896	1.437374	-0.519039	-0.120964	0.995476	-0.405201	-0.138383	0.997172	-0.639710	-0.158142	1.082891	-0.386161	-0.174279	1.078681	-0.655623	-0.279255	1.044388	-0.463892	-0.288147	1.044209	-0.552067	-0.290505	1.041937	-0.510352	-0.216838	0.834198	-0.340428	-0.210868	0.772311	-0.343420	-0.139120	0.786975	-0.340976	-0.153254	0.845489	-0.339333	-0.191817	0.560194	-0.365388	-0.176940	0.545560	-0.486287	-0.267247	0.428084	-0.354640	-0.277659	0.387422	-0.364761	-0.218781	0.376310	-0.353410	-0.211362	0.415803	-0.348479	-0.251256	0.209436	-0.383218	-0.297119	0.205876	-0.430197	-0.172774	0.115706	-0.362396	-0.135007	0.115215	-0.421671	-0.114467	0.101362	-0.416911	-0.246542	0.829374	-0.694946	-0.235297	0.770848	-0.698081	-0.165116	0.785803	-0.708890	-0.184193	0.844104	-0.705535	-0.205332	0.571591	-0.690103	-0.188871	0.547880	-0.574586	-0.284075	0.406511	-0.697301	-0.292725	0.367677	-0.688509	-0.231042	0.358752	-0.692496	-0.230230	0.402147	-0.699784	-0.288555	0.220456	-0.676237	-0.258859	0.233103	-0.603145	-0.335349	0.226528	-0.632339	-0.227825	0.113156	-0.688390	-0.189973	0.111127	-0.622583	-0.176479	0.095385	-0.634148	
755	3.7750	-0.283229	1.477424	-0.512258	-0.204619	1.485969	-0.663726	-0.208013	1.475248	-0.359238	-0.152388	1.436506	-0.519087	-0.121597	0.994928	-0.404811	-0.138497	0.996496	-0.639506	-0.158865	1.082213	-0.386095	-0.174323	1.077958	-0.655484	-0.279908	1.043283	-0.464117	-0.288567	1.043042	-0.552273	-0.291013	1.040794	-0.510583	-0.217137	0.833357	-0.340401	-0.210797	0.771519	-0.343356	-0.139146	0.786580	-0.340628	-0.153628	0.845030	-0.339039	-0.190878	0.559635	-0.365195	-0.175978	0.545245	-0.486099	-0.266716	0.427707	-0.354533	-0.277243	0.387145	-0.364765	-0.218422	0.375855	-0.353320	-0.210893	0.415301	-0.348367	-0.251318	0.209058	-0.383256	-0.297244	0.205259	-0.430183	-0.172399	0.115812	-0.362522	-0.134803	0.115516	-0.421902	-0.114137	0.102091	-0.417118	-0.246221	0.828439	-0.695183	-0.234686	0.769975	-0.698244	-0.164534	0.785249	-0.708754	-0.183885	0.843456	-0.705485	-0.204189	0.571044	-0.690221	-0.188435	0.547521	-0.574509	-0.283660	0.406276	-0.697358	-0.292465	0.367459	-0.688467	-0.230822	0.358285	-0.692356	-0.229805	0.401662	-0.699713	-0.288988	0.220176	-0.676029	-0.259309	0.232827	-0.602911	-0.335867	0.225963	-0.632095	-0.227840	0.113210	-0.688345	-0.189878	0.111412	-0.622605	-0.176266	0.095907	-0.634310	
756	3.7800	-0.282546	1.476701	-0.512214	-0.203818	1.484654	-0.663869	-0.207190	1.473932	-0.359032	-0.151890	1.435394	-0.519134	-0.122212	0.994138	-0.404425	-0.138599	0.995569	-0.639300	-0.159623	1.081272	-0.386027	-0.174356	1.076960	-0.655364	-0.280547	1.041935	-0.464348	-0.288978	1.041638	-0.552480	-0.291504	1.039406	-0.510828	-0.217385	0.832277	-0.340346	-0.210681	0.770486	-0.343250	-0.139129	0.785942	-0.340288	-0.153952	0.844320	-0.338767	-0.189907	0.558825	-0.364989	-0.175023	0.544664	-0.485890	-0.266166	0.427087	-0.354388	-0.276811	0.386590	-0.364772	-0.218037	0.375124	-0.353214	-0.210390	0.414525	-0.348236	-0.251435	0.208449	-0.383278	-0.297416	0.204454	-0.430161	-0.172149	0.115617	-0.362682	-0.134712	0.115516	-0.422135	-0.113935	0.102479	-0.417356	-0.245871	0.827312	-0.695395	-0.234072	0.768909	-0.698369	-0.163949	0.784484	-0.708637	-0.183551	0.842591	-0.705454	-0.203007	0.570224	-0.690356	-0.188015	0.546891	-0.574450	-0.283290	0.405773	-0.697404	-0.292256	0.366978	-0.688420	-0.230657	0.357554	-0.692260	-0.229440	0.400912	-0.699676	-0.289452	0.219652	-0.675844	-0.259762	0.232314	-0.602708	-0.336398	0.225176	-0.631864	-0.227893	0.113047	-0.688336	-0.189838	0.111433	-0.622671	-0.176112	0.096141	-0.634490	
757	3.7850	-0.281863	1.475726	-0.512159	-0.203063	1.483112	-0.663976	-0.206333	1.472383	-0.358868	-0.151393	1.434032	-0.519170	-0.122807	0.993098	-0.404046	-0.138690	0.994394	-0.639099	-0.160402	1.080077	-0.385956	-0.174380	1.075692	-0.655261	-0.281170	1.040351	-0.464580	-0.289375	1.039999	-0.552686	-0.291978	1.037782	-0.511080	-0.217582	0.830957	-0.340257	-0.210523	0.769211	-0.343098	-0.139070	0.785068	-0.339961	-0.154226	0.843370	-0.338523	-0.188902	0.557761	-0.364767	-0.174076	0.543813	-0.485655	-0.265594	0.426239	-0.354209	-0.276357	0.385764	-0.364769	-0.217619	0.374121	-0.353093	-0.209855	0.413485	-0.348090	-0.251595	0.207608	-0.383278	-0.297628	0.203460	-0.430125	-0.172040	0.115138	-0.362829	-0.134744	0.115226	-0.422405	-0.113875	0.102504	-0.417590	-0.245490	0.825975	-0.695570	-0.233446	0.767648	-0.698468	-0.163361	0.783492	-0.708527	-0.183190	0.841502	-0.705440	-0.201793	0.569128	-0.690505	-0.187584	0.545989	-0.574422	-0.282964	0.405002	-0.697438	-0.292094	0.366232	-0.688379	-0.230539	0.356568	-0.692205	-0.229133	0.399889	-0.699671	-0.289940	0.218878	-0.675688	-0.260223	0.231554	-0.602530	-0.336940	0.224177	-0.631660	-0.228015	0.112621	-0.688352	-0.189888	0.111197	-0.622821	-0.176018	0.096150	-0.634735	
758	3.7900	-0.281171	1.474501	-0.512102	-0.202337	1.481335	-0.664056	-0.205454	1.470604	-0.358736	-0.150881	1.432416	-0.519190	-0.123376	0.991809	-0.403678	-0.138771	0.992969	-0.638909	-0.161186	1.078629	-0.385880	-0.174422	1.074153	-0.655183	-0.281777	1.038545	-0.464809	-0.289757	1.038133	-0.552888	-0.292437	1.035935	-0.511334	-0.217728	0.829404	-0.340136	-0.210324	0.767708	-0.342905	-0.138968	0.783954	-0.339653	-0.154446	0.842174	-0.338302	-0.187867	0.556445	-0.364529	-0.173130	0.542695	-0.485391	-0.265000	0.425143	-0.353995	-0.275884	0.384682	-0.364749	-0.217175	0.372854	-0.352967	-0.209281	0.412178	-0.347929	-0.251797	0.206542	-0.383266	-0.297869	0.202280	-0.430066	-0.172036	0.114343	-0.362992	-0.134870	0.114618	-0.422671	-0.113934	0.102224	-0.417846	-0.245080	0.824432	-0.695714	-0.232810	0.766171	-0.698532	-0.162764	0.782266	-0.708439	-0.182798	0.840195	-0.705438	-0.200555	0.567751	-0.690667	-0.187129	0.544804	-0.574428	-0.282671	0.403951	-0.697475	-0.291973	0.365222	-0.688342	-0.230455	0.355311	-0.692190	-0.228867	0.398598	-0.699701	-0.290446	0.217852	-0.675555	-0.260693	0.230538	-0.602375	-0.337496	0.222959	-0.631485	-0.228173	0.111964	-0.688396	-0.189948	0.110675	-0.622925	-0.175985	0.095891	-0.634966	
